<?xml version="1.0" standalone="no"?><!DOCTYPE svg PUBLIC "-//W3C//DTD SVG 1.1//EN" "http://www.w3.org/Graphics/SVG/1.1/DTD/svg11.dtd"><svg t="1698819600147" class="icon" viewBox="0 0 1024 1024" version="1.1" xmlns="http://www.w3.org/2000/svg" p-id="5066" xmlns:xlink="http://www.w3.org/1999/xlink" width="200" height="200"><path d="M933.012 926.53c-0.06-0.22-0.06-0.42-0.12-0.64-27.32-95.96-67.9-186.7-120.58-269.92l22.32-22.32c15.98-16 24.8-37.26 24.8-59.88 0-4.96-0.46-9.86-1.28-14.66a62.14 62.14 0 0 0 23.8 4.72c16.6 0 32.18-6.46 43.92-18.2 24.16-24.18 24.16-63.54-0.02-87.74l-256.22-256.22c-11.7-11.7-27.28-18.14-43.86-18.14s-32.16 6.46-43.88 18.18c-11.72 11.7-18.16 27.28-18.16 43.86-0.02 13 3.96 25.38 11.32 35.76l-75.2 10.1c-0.08 0-0.16 0.04-0.24 0.06-0.38 0.06-0.76 0.16-1.16 0.26-0.26 0.08-0.52 0.14-0.76 0.24-0.34 0.12-0.66 0.28-0.98 0.46-0.26 0.12-0.54 0.24-0.78 0.4-0.28 0.18-0.54 0.38-0.8 0.58-0.26 0.2-0.54 0.42-0.78 0.64-0.08 0.08-0.16 0.12-0.24 0.2l-23.4 23.42c-25.06-15.88-50.44-30.62-75.68-43.92-0.44-37.42-15.9-76.1-45.94-106.14-21.78-21.78-48.64-36.58-77.7-42.82l-1.1-0.22-178.14-39c-0.04-0.02-0.08-0.02-0.14-0.02-0.36-0.08-0.76-0.1-1.14-0.14-0.3-0.02-0.58-0.06-0.86-0.06-0.26 0-0.52 0.04-0.78 0.06a8.4 8.4 0 0 0-1.24 0.14c-0.04 0.02-0.08 0-0.12 0.02-0.18 0.04-0.34 0.12-0.52 0.16-0.42 0.12-0.84 0.24-1.24 0.42-0.26 0.1-0.5 0.24-0.74 0.38-0.32 0.16-0.64 0.32-0.94 0.52-0.26 0.18-0.48 0.38-0.72 0.56-0.26 0.22-0.52 0.44-0.76 0.68-0.22 0.2-0.4 0.44-0.6 0.68-0.22 0.26-0.44 0.52-0.64 0.8-0.16 0.26-0.3 0.54-0.46 0.82-0.16 0.3-0.32 0.58-0.44 0.88-0.16 0.34-0.26 0.72-0.36 1.08-0.06 0.22-0.16 0.42-0.2 0.64-0.02 0.06-0.02 0.1-0.02 0.14-0.08 0.38-0.1 0.76-0.14 1.16-0.02 0.28-0.08 0.56-0.08 0.84s0.06 0.56 0.08 0.86c0.04 0.38 0.06 0.76 0.14 1.14 0 0.06 0 0.1 0.02 0.14l39 178.2 0.24 1.08c6.22 29.02 21.02 55.88 42.8 77.68 30.04 30.02 68.7 45.48 106.1 45.92 13.3 25.18 28.04 50.58 43.94 75.68l-79.36 79.36c-12.78 12.78-19.8 29.76-19.8 47.82 0 18.04 7.02 35.02 19.8 47.78 12.76 12.76 29.72 19.8 47.78 19.8 6.18 0 12.22-0.82 18.02-2.42s11.36-3.96 16.52-7.04c-0.08 1.36-0.12 2.7-0.12 4.06 0 18.06 6.8 34.8 19.16 47.14 12.36 12.36 29.1 19.16 47.14 19.16h0.02c11.66 0 23.12-2.92 33.26-8.3-1.16 18.68 5.36 37.78 19.6 52.06 13.18 13.16 30.48 19.74 47.78 19.74 10.3 0 20.58-2.36 30-7-0.12 1.64-0.2 3.28-0.2 4.94 0 18.06 7.04 35.04 19.82 47.82 13.18 13.18 30.48 19.76 47.78 19.76 16.52 0 33.06-6.04 45.98-18.06 0.16-0.14 0.34-0.24 0.48-0.38l1.3-1.3c0-0.02 0.02-0.02 0.04-0.04l23.3-23.3c83.18 52.66 173.92 93.26 269.9 120.6 0.24 0.06 0.46 0.1 0.7 0.14l0.54 0.12c0.48 0.06 0.96 0.12 1.44 0.12h0.12c0.48 0 0.96-0.06 1.44-0.12 0.18-0.04 0.36-0.08 0.56-0.12 0.22-0.04 0.46-0.08 0.68-0.14 0.06-0.02 0.12-0.06 0.16-0.08 0.56-0.16 1.1-0.36 1.6-0.62 0.06-0.04 0.12-0.06 0.18-0.1 0.52-0.26 0.98-0.58 1.44-0.94 0.16-0.12 0.32-0.26 0.46-0.4 0.3-0.26 0.6-0.54 0.86-0.84 0.14-0.16 0.28-0.32 0.42-0.5 0.24-0.3 0.46-0.62 0.66-0.96 0.1-0.18 0.22-0.36 0.32-0.56 0.18-0.34 0.32-0.7 0.46-1.06 0.08-0.22 0.18-0.42 0.24-0.64 0.02-0.06 0.06-0.12 0.08-0.18 0.06-0.22 0.06-0.44 0.12-0.66 0.08-0.36 0.16-0.74 0.2-1.12 0.02-0.32 0.02-0.64 0.02-0.96 0-0.32 0-0.64-0.02-0.98-0.04-0.38-0.12-0.74-0.2-1.12z m-336.98-710.68c7.94-7.94 18.5-12.32 29.74-12.32s21.8 4.38 29.74 12.3l256.18 256.2c16.4 16.4 16.42 43.08 0.04 59.46a41.846 41.846 0 0 1-29.78 12.34c-11.22 0-21.78-4.38-29.74-12.34l-256.2-256.2c-7.92-7.94-12.28-18.48-12.28-29.72s4.36-21.78 12.3-29.72z m-419.6 124.44c-19.04-19.04-31.98-42.46-37.38-67.7v-0.04c0-0.02 0-0.04-0.02-0.04l-0.22-1.02-0.22-1.06c0-0.02-0.02-0.04-0.02-0.08l-35.46-161.88 161.9 35.44c0.04 0 0.06 0.02 0.1 0.02l1.06 0.22 1 0.22c0.04 0.02 0.1 0.02 0.16 0.04 25.2 5.42 48.6 18.34 67.62 37.38 49.3 49.28 53.84 124.92 10.14 168.64-20.14 20.12-47.04 30.02-75.04 30.02-32.78 0-67.04-13.58-93.62-40.16z m113.84 58.58c25.72-3.86 49.88-15.22 68.96-34.3 19.08-19.08 30.44-43.22 34.32-68.94a1079.204 1079.204 0 0 1 62.66 36.54l-129.38 129.38c-13.08-20.8-25.32-41.8-36.56-62.68z m351.92 398.94c-0.06 0.06-0.14 0.12-0.2 0.2l-28.84 28.82c-18.54 18.54-48.72 18.54-67.26 0-9-9-13.96-20.96-13.96-33.68 0-12.52 4.8-24.3 13.52-33.24l30.64-30.66a9.97 9.97 0 0 0 0-14.14 10.006 10.006 0 0 0-14.14 0l-30.12 30.14c-0.02 0.02-0.08 0.04-0.1 0.08-0.14 0.14-0.28 0.3-0.42 0.44l-15.5 15.52c-18.54 18.56-48.74 18.56-67.3 0.04-18.56-18.58-18.56-48.8 0-67.34 0.08-0.08 0.14-0.16 0.2-0.24l28.68-28.72c3.92-3.9 3.9-10.24 0-14.14a10.006 10.006 0 0 0-14.14 0.02l-46.16 46.2c-9.28 9.28-22.24 14.6-35.6 14.6-12.72 0-24.44-4.72-33.02-13.3-8.58-8.58-13.3-20.3-13.3-33 0-13.34 5.32-26.32 14.6-35.6 0-0.02 0.02-0.02 0.02-0.02l34.16-34.18a9.97 9.97 0 0 0 0-14.14 10.006 10.006 0 0 0-14.14 0l-33.74 33.76c-0.16 0.14-0.3 0.28-0.44 0.42l-21.24 21.22c-8.98 9-20.92 13.94-33.64 13.94-12.7 0-24.66-4.94-33.64-13.94-9-9-13.94-20.94-13.94-33.64 0-12.72 4.94-24.68 13.94-33.68l258.76-258.76 85.84-11.52 228.78 228.76c0 0.02 0 0.02 0.02 0.04 12.2 12.2 18.92 28.42 18.92 45.7s-6.74 33.52-18.94 45.74l-178.3 178.3z m22.94 5.34l132.68-132.68a995.23 995.23 0 0 1 44.78 79.28l-98.2 98.2a1004.908 1004.908 0 0 1-79.26-44.8z m98.2 54.14l88.62-88.62a1019.628 1019.628 0 0 1 56.54 145.18 1020.924 1020.924 0 0 1-145.16-56.56z" fill="#23130D" p-id="5067"></path><path d="M908.492 913.85a1020.924 1020.924 0 0 1-145.16-56.56l88.62-88.62a1019.628 1019.628 0 0 1 56.54 145.18z" fill="#F9C139" p-id="5068"></path><path d="M842.592 749.75l-98.2 98.2a1004.908 1004.908 0 0 1-79.26-44.8l132.68-132.68a995.23 995.23 0 0 1 44.78 79.28z" fill="#E1E1E5" p-id="5069"></path><path d="M806.752 685.03l-127.06 127.06c-4.88-2.94-9.74-5.92-14.56-8.94l132.68-132.68c3.02 4.82 6 9.68 8.94 14.56z" fill="#23130D" opacity=".2" p-id="5070"></path><path d="M456.212 332.17l-129.38 129.38c-13.08-20.8-25.32-41.8-36.56-62.68 25.72-3.86 49.88-15.22 68.96-34.3 19.08-19.08 30.44-43.22 34.32-68.94a1079.204 1079.204 0 0 1 62.66 36.54z" fill="#E1E1E5" p-id="5071"></path><path d="M456.212 332.17l-129.38 129.38c-2.56-4.06-5.08-8.12-7.56-12.2l124.74-124.74c4.08 2.48 8.14 5 12.2 7.56z" fill="#23130D" opacity=".2" p-id="5072"></path><path d="M345.092 350.43c-20.14 20.12-47.04 30.02-75.04 30.02-32.78 0-67.04-13.58-93.62-40.16-19.04-19.04-31.98-42.46-37.38-67.7v-0.04c0-0.02 0-0.04-0.02-0.04l-0.22-1.02-0.22-1.06c0-0.02-0.02-0.04-0.02-0.08l-35.46-161.88 161.9 35.44c0.04 0 0.06 0.02 0.1 0.02l1.06 0.22 1 0.22c0.04 0.02 0.1 0.02 0.16 0.04 25.2 5.42 48.6 18.34 67.62 37.38 49.3 49.28 53.84 124.92 10.14 168.64z" fill="#EC7063" p-id="5073"></path><path d="M345.092 350.43c-20.14 20.12-47.04 30.02-75.04 30.02-32.78 0-67.04-13.58-93.62-40.16-6-6-11.42-12.46-16.16-19.26 22.88 15.98 49.1 24.1 74.46 24.1 28 0 54.9-9.9 75.04-30.02 38.36-38.38 39.54-101.34 5.92-149.48 6.8 4.74 13.26 10.14 19.26 16.16 49.3 49.28 53.84 124.92 10.14 168.64z" fill="#23130D" opacity=".2" p-id="5074"></path><path d="M911.732 531.49a41.846 41.846 0 0 1-29.78 12.34c-11.22 0-21.78-4.38-29.74-12.34l-256.2-256.2c-7.92-7.94-12.28-18.48-12.28-29.72s4.36-21.78 12.3-29.72c7.94-7.94 18.5-12.32 29.74-12.32s21.8 4.38 29.74 12.3l256.18 256.2c16.4 16.4 16.42 43.08 0.04 59.46z" fill="#3594BF" p-id="5075"></path><path d="M919.232 521.27c-1.92 3.68-4.42 7.14-7.5 10.22a41.846 41.846 0 0 1-29.78 12.34c-11.22 0-21.78-4.38-29.74-12.34l-256.2-256.2c-7.92-7.94-12.28-18.48-12.28-29.72s4.36-21.78 12.3-29.72a42.34 42.34 0 0 1 10.22-7.54 41.78 41.78 0 0 0-4.78 19.5c0 11.24 4.36 21.78 12.3 29.74l256.18 256.2c7.98 7.94 18.52 12.32 29.74 12.32 6.92 0 13.58-1.66 19.54-4.8z" fill="#23130D" opacity=".2" p-id="5076"></path><path d="M839.432 573.77c0 17.28-6.74 33.52-18.94 45.74l-178.3 178.3c-0.06 0.06-0.14 0.12-0.2 0.2l-28.84 28.82c-18.54 18.54-48.72 18.54-67.26 0-9-9-13.96-20.96-13.96-33.68 0-12.52 4.8-24.3 13.52-33.24l30.64-30.66a9.97 9.97 0 0 0 0-14.14 10.006 10.006 0 0 0-14.14 0l-30.12 30.14c-0.02 0.02-0.08 0.04-0.1 0.08-0.14 0.14-0.28 0.3-0.42 0.44l-15.5 15.52c-18.54 18.56-48.74 18.56-67.3 0.04-18.56-18.58-18.56-48.8 0-67.34 0.08-0.08 0.14-0.16 0.2-0.24l28.68-28.72c3.92-3.9 3.9-10.24 0-14.14a10.006 10.006 0 0 0-14.14 0.02l-46.16 46.2c-9.28 9.28-22.24 14.6-35.6 14.6-12.72 0-24.44-4.72-33.02-13.3-8.58-8.58-13.3-20.3-13.3-33 0-13.34 5.32-26.32 14.6-35.6 0-0.02 0.02-0.02 0.02-0.02l34.16-34.18a9.97 9.97 0 0 0 0-14.14 10.006 10.006 0 0 0-14.14 0l-33.74 33.76c-0.16 0.14-0.3 0.28-0.44 0.42l-21.24 21.22c-8.98 9-20.92 13.94-33.64 13.94-12.7 0-24.66-4.94-33.64-13.94-9-9-13.94-20.94-13.94-33.64 0-12.72 4.94-24.68 13.94-33.68l258.76-258.76 85.84-11.52 228.78 228.76c0 0.02 0 0.02 0.02 0.04 12.2 12.2 18.92 28.42 18.92 45.7z" fill="#F8D3C9" p-id="5077"></path><path d="M439.272 674.89c0.06-0.06 0.12-0.12 0.2-0.18l-22.38 22.4c-0.14 0.14-0.3 0.3-0.46 0.44l22.64-22.66zM515.372 761.71l15.94-15.94-15.5 15.52c-0.14 0.14-0.28 0.28-0.44 0.42zM839.432 573.77c0 17.28-6.74 33.52-18.94 45.74l-23.98 23.98c12.2-12.22 18.94-28.46 18.94-45.74s-6.72-33.5-18.92-45.7c-0.02-0.02-0.02-0.02-0.02-0.04l-228.78-228.76-85.84 11.52 23.98-23.98 85.84-11.52 228.78 228.76c0 0.02 0 0.02 0.02 0.04 12.2 12.2 18.92 28.42 18.92 45.7z" fill="#23130D" opacity=".2" p-id="5078"></path><path d="M335.626 615.654l-21.24 21.22c-8.98 9-20.92 13.94-33.64 13.94-12.7 0-24.66-4.94-33.64-13.94-9-9-13.94-20.94-13.94-33.64 0-12.72 4.94-24.68 13.94-33.68l23.98-23.98c-9 9-13.94 20.96-13.94 33.68 0 12.7 4.94 24.64 13.94 33.64 8.98 9 20.94 13.94 33.64 13.94 12.72 0 24.66-4.94 33.64-13.94l21.24-21.22-23.54 23.56c-0.16 0.14-0.3 0.28-0.44 0.42zM440.606 673.576l-23.52 23.54c-9.28 9.28-22.24 14.6-35.6 14.6-12.72 0-24.44-4.72-33.02-13.3-8.58-8.58-13.3-20.3-13.3-33 0-13.34 5.32-26.32 14.6-35.6 0-0.02 0.02-0.02 0.02-0.02l23.96-23.96c-9.28 9.28-14.6 22.26-14.6 35.6 0 12.7 4.72 24.42 13.3 33 8.58 8.58 20.3 13.3 33.02 13.3 13.14-0.002 25.9-5.142 35.14-14.16zM637.126 802.854l-23.98 23.98c-18.54 18.54-48.72 18.54-67.26 0-9-9-13.96-20.96-13.96-33.68 0-12.52 4.8-24.3 13.52-33.24l23.98-23.98a47.304 47.304 0 0 0-13.52 33.24c0 12.72 4.96 24.68 13.96 33.68 18.54 18.54 48.72 18.54 67.26 0zM539.792 737.39l-23.98 23.98c-18.54 18.54-48.72 18.54-67.26 0-9-9-13.96-20.96-13.96-33.68 0-12.52 4.8-24.3 13.52-33.24l23.98-23.98a47.304 47.304 0 0 0-13.52 33.24c0 12.72 4.96 24.68 13.96 33.68 18.54 18.54 48.72 18.54 67.26 0z" fill="#FFFFFF" opacity=".6" p-id="5079"></path></svg>